<?xml version="1.0" encoding="utf-8"?>
<!-- Generator: Adobe Illustrator 25.2.1, SVG Export Plug-In . SVG Version: 6.00 Build 0)  -->
<svg version="1.1" id="Layer_1" xmlns="http://www.w3.org/2000/svg" xmlns:xlink="http://www.w3.org/1999/xlink" x="0px" y="0px"
	 viewBox="0 0 841.89 595.28" style="enable-background:new 0 0 841.89 595.28;" xml:space="preserve">
<style type="text/css">
	.st0{fill:#17365F;}
	.st1{fill:#F27321;}
	.st2{fill:#16335C;}
</style>
<g>
	<circle class="st0" cx="288.56" cy="176.91" r="25.02"/>
	<path class="st1" d="M553.65,264.8c0-0.41-0.02-0.82-0.06-1.23c0.01-0.18,0.02-0.37,0.03-0.55h-0.11
		c-0.86-5.94-5.96-10.51-12.14-10.51c-6.73,0-12.18,5.41-12.28,12.11c-2.48,19.6-19.2,34.76-39.48,34.76
		c-20.28,0-37-15.16-39.48-34.76c-0.1-6.7-5.55-12.11-12.28-12.11c-6.18,0-11.28,4.57-12.14,10.51h-0.11c0,0.18,0.02,0.37,0.03,0.55
		c-0.04,0.4-0.06,0.81-0.06,1.23c0,0.93,0.11,1.83,0.31,2.71c2.99,32.6,30.36,58.14,63.74,58.14c33.38,0,60.75-25.54,63.74-58.14
		C553.53,266.63,553.65,265.73,553.65,264.8z"/>
	<path class="st0" d="M436.75,166.8c-37.21,0-67.67,28.78-70.4,65.28h0.23c-0.15,0.77-0.23,1.55-0.23,2.36l0.29,36.66
		c0,2.36,0.04,2.8-0.04,4.74c-0.04,0.92,0.01,1.86-0.16,2.77l-0.02,0.09c-0.04,0.22-0.1,0.45-0.17,0.66
		c-4.89,14.43-15.84,24.65-31.85,24.65c-16.42,0-28.05-10.76-32.65-25.77c0,0,0-0.8,0-0.8c-0.24-3.52-0.13-3.73-0.13-6.3v-45.69
		c0-6.9-5.59-12.49-12.49-12.49h-1c-6.9,0-12.49,5.59-12.49,12.49v45.69c0,0.15,0.02,0.3,0.02,0.45c-0.01,0.15-0.02,0.3-0.02,0.45
		c0,0.86,0.1,1.7,0.28,2.5c2.74,30.12,27.85,53.73,58.47,53.73c30.62,0,55.74-23.6,58.47-53.73c0.18-0.81,0.28-1.64,0.28-2.5
		c0-0.15-0.02-0.3-0.02-0.45c0.01-0.15,0.02-0.3,0.02-0.45v-36.69c0-0.81-0.08-1.6-0.23-2.36h0.03c1.59-22.8,20.58-40.8,43.78-40.8
		c21.55,0,39.45,15.53,43.17,36c0,0,0,0,0,0v11.33c0,7.17,5.82,12.99,12.99,12.99h0c7.17,0,14.24-5.98,14.24-13.16v-6.36l0,0
		C504.43,195.58,473.96,166.8,436.75,166.8z"/>
	<g>
		<g>
			<path class="st1" d="M273.38,370.13c-2.2,0-3.98-0.62-5.33-1.88c-1.35-1.25-2.02-2.8-2.02-4.65c0-1.85,0.68-3.4,2.02-4.65
				c1.35-1.25,3.12-1.88,5.33-1.88c2.15,0,3.91,0.59,5.29,1.76c1.37,1.17,2.06,2.69,2.06,4.54c0,1.95-0.68,3.56-2.03,4.84
				C277.36,369.5,275.58,370.13,273.38,370.13z M267.53,416.11v-40.35h11.7v40.35H267.53z"/>
			<path class="st2" d="M290.93,416.11v-52.5h23.85c5.7,0,10.73,1.09,15.08,3.26c4.35,2.17,7.75,5.23,10.2,9.15
				c2.45,3.93,3.68,8.54,3.68,13.84c0,5.3-1.23,9.91-3.68,13.84c-2.45,3.93-5.85,6.97-10.2,9.15c-4.35,2.17-9.38,3.26-15.08,3.26
				H290.93z M303.16,406.21h11.02c3.5,0,6.54-0.66,9.11-1.99c2.57-1.32,4.57-3.22,6-5.7c1.42-2.47,2.14-5.36,2.14-8.66
				c0-3.35-0.71-6.25-2.14-8.7c-1.43-2.45-3.43-4.34-6-5.66c-2.58-1.32-5.61-1.99-9.11-1.99h-11.02V406.21z"/>
			<path class="st2" d="M372.08,416.71c-4.6,0-8.62-0.9-12.07-2.7c-3.45-1.8-6.13-4.26-8.02-7.39c-1.9-3.12-2.85-6.69-2.85-10.69
				c0-4,0.91-7.58,2.74-10.72c1.82-3.15,4.37-5.61,7.65-7.39c3.27-1.77,6.96-2.66,11.06-2.66c3.95,0,7.51,0.85,10.69,2.55
				c3.17,1.7,5.69,4.1,7.54,7.2c1.85,3.1,2.77,6.83,2.77,11.18c0,0.45-0.03,0.96-0.08,1.54c-0.05,0.58-0.1,1.11-0.15,1.61h-32.77
				v-6.83h26.62l-4.58,2.03c0.05-2.1-0.35-3.92-1.2-5.47c-0.85-1.55-2.02-2.76-3.52-3.64c-1.5-0.87-3.25-1.31-5.25-1.31
				c-2,0-3.76,0.44-5.29,1.31c-1.53,0.88-2.71,2.1-3.56,3.67c-0.85,1.58-1.27,3.44-1.27,5.59v1.8c0,2.25,0.5,4.2,1.5,5.85
				c1,1.65,2.37,2.91,4.12,3.79c1.75,0.88,3.85,1.31,6.3,1.31c2.1,0,3.96-0.32,5.59-0.97c1.62-0.65,3.11-1.62,4.46-2.92l6.23,6.75
				c-1.85,2.1-4.18,3.71-6.98,4.84C378.95,416.14,375.73,416.71,372.08,416.71z"/>
			<path class="st2" d="M399.38,416.11v-55.65h11.7v55.65H399.38z"/>
			<path class="st2" d="M427.8,370.13c-2.2,0-3.97-0.62-5.32-1.88c-1.35-1.25-2.03-2.8-2.03-4.65c0-1.85,0.68-3.4,2.03-4.65
				c1.35-1.25,3.12-1.88,5.32-1.88c2.15,0,3.91,0.59,5.29,1.76s2.06,2.69,2.06,4.54c0,1.95-0.67,3.56-2.02,4.84
				C431.78,369.5,430,370.13,427.8,370.13z M421.95,416.11v-40.35h11.7v40.35H421.95z"/>
			<path class="st2" d="M455.55,416.11l-16.95-40.35h12l14.1,34.72h-6l14.7-34.72h11.18l-17.03,40.35H455.55z"/>
			<path class="st2" d="M509.4,416.71c-4.6,0-8.62-0.9-12.08-2.7c-3.45-1.8-6.12-4.26-8.02-7.39c-1.9-3.12-2.85-6.69-2.85-10.69
				c0-4,0.91-7.58,2.74-10.72c1.82-3.15,4.37-5.61,7.65-7.39c3.27-1.77,6.96-2.66,11.06-2.66c3.95,0,7.51,0.85,10.69,2.55
				c3.17,1.7,5.69,4.1,7.54,7.2c1.85,3.1,2.78,6.83,2.78,11.18c0,0.45-0.03,0.96-0.08,1.54c-0.05,0.58-0.1,1.11-0.15,1.61H495.9
				v-6.83h26.62l-4.58,2.03c0.05-2.1-0.35-3.92-1.2-5.47c-0.85-1.55-2.02-2.76-3.52-3.64c-1.5-0.87-3.25-1.31-5.25-1.31
				c-2,0-3.76,0.44-5.29,1.31c-1.53,0.88-2.71,2.1-3.56,3.67c-0.85,1.58-1.28,3.44-1.28,5.59v1.8c0,2.25,0.5,4.2,1.5,5.85
				c1,1.65,2.37,2.91,4.12,3.79c1.75,0.88,3.85,1.31,6.3,1.31c2.1,0,3.96-0.32,5.59-0.97c1.62-0.65,3.11-1.62,4.46-2.92l6.23,6.75
				c-1.85,2.1-4.18,3.71-6.98,4.84C516.28,416.14,513.05,416.71,509.4,416.71z"/>
			<path class="st2" d="M536.7,416.11v-40.35h11.17v11.47l-1.58-3.38c1.2-2.85,3.12-5.01,5.77-6.49c2.65-1.47,5.88-2.21,9.68-2.21
				v10.88c-0.45-0.1-0.89-0.17-1.31-0.22c-0.43-0.05-0.84-0.08-1.24-0.08c-3.3,0-5.92,0.93-7.88,2.78c-1.95,1.85-2.92,4.7-2.92,8.55
				v19.05H536.7z"/>
		</g>
	</g>
</g>
</svg>
